<svg viewBox="0 0 658 658" fill="#585B4C" xmlns="http://www.w3.org/2000/svg">
<path d="M643.45 407.509C632.75 398.109 622.1 388.879 611.67 379.409C610.4 378.259 609.77 375.709 609.86 373.849C610.7 356.419 612.7 338.989 612.58 321.579C612.16 262.679 594.28 209.109 560.58 160.999C517.53 99.5195 459.15 59.7095 385.44 45.9195C285.7 27.2595 197.38 52.0695 124.06 123.609C80.0303 166.569 54.5303 219.629 44.5803 280.059C35.4403 335.559 39.5103 389.979 62.8503 441.729C90.8503 503.799 134.91 551.319 195.2 583.519C226.76 600.379 260.26 611.149 295.77 615.029C325.73 618.309 355.58 616.919 385.07 610.089C386.84 609.679 389.53 609.929 390.77 611.029C402.46 621.329 413.93 631.869 424.98 641.909C329.68 676.509 186.36 661.409 83.3603 546.139C-26.8597 422.789 -23.1697 246.259 67.3003 127.449C163.48 1.13949 331.96 -32.3805 468.19 31.7895C609.46 98.3395 680.68 256.319 643.44 407.509H643.45Z" fill="#585B4C"/>
<path d="M370.46 506.619C366.53 431.419 435.73 361.549 513.65 361.849C600.67 362.179 658.54 433.309 658.11 507.759C657.64 589.149 588.95 652.189 513.9 652.039C433.46 651.879 367.2 582.709 370.46 506.629V506.619ZM488.16 521.539C486.88 519.759 486.06 518.279 484.92 517.099C475.36 507.109 465.85 497.079 456.12 487.259C448.54 479.599 439.33 479.409 432.28 486.399C425.16 493.459 425.2 502.649 432.54 510.269C446.64 524.899 460.76 539.509 474.96 554.039C483.58 562.859 493.32 563.019 502.04 554.199C532.83 523.039 563.49 491.769 594.17 460.499C601.48 453.049 601.53 444.359 594.46 437.139C587.41 429.939 578.72 429.859 571.09 436.949C569.63 438.309 568.28 439.789 566.88 441.219C541 467.619 515.12 494.029 488.15 521.539H488.16Z" fill="#585B4C"/>
<path d="M326.55 367.309C311.16 367.289 299.13 358.249 295.97 343.229C294.83 337.819 292.2 334.519 288 331.549C255.71 308.659 223.49 285.669 191.24 262.729C182.01 256.159 179.92 247.649 185.68 239.729C190.84 232.639 199.22 231.029 206.78 235.909C229.55 250.589 252.26 265.359 274.99 280.089C286.15 287.319 297.36 294.479 308.43 301.839C311.57 303.929 314.4 304.129 318.15 303.439C323.58 302.439 329.28 302.959 334.86 302.629C337.12 302.499 339.9 302.549 341.52 301.309C356.8 289.529 371.83 277.409 387.04 265.529C411.03 246.779 435.18 228.239 459.1 209.409C469.16 201.489 478.92 193.169 488.64 184.829C495.71 178.759 503.66 178.839 509.25 185.459C514.67 191.879 513.63 199.759 506.77 205.609C466.1 240.269 425.47 274.969 384.82 309.649C376.71 316.559 368.53 323.389 360.5 330.389C359.29 331.439 357.83 333.389 358.03 334.679C360.56 350.769 344.71 368.769 326.54 367.339L326.55 367.309Z" fill="#585B4C"/>
<path d="M90.8903 342.319C85.8903 342.319 80.8903 342.409 75.9003 342.299C68.3903 342.129 62.3803 336.629 61.7503 329.519C61.0403 321.569 65.8503 314.359 73.7203 313.869C85.4903 313.139 97.3803 313.069 109.14 313.799C116.86 314.279 121.18 321.029 120.72 329.179C120.31 336.359 114.67 341.689 106.87 342.249C106.54 342.269 106.2 342.279 105.87 342.279C100.87 342.279 95.8703 342.279 90.8803 342.279V342.329L90.8903 342.319Z" fill="#585B4C"/>
<path d="M562.38 313.389C567.2 313.389 572.02 313.429 576.85 313.389C585.25 313.299 591.42 319.139 591.68 327.499C591.93 335.649 585.8 342.199 577.56 342.289C567.58 342.399 557.6 342.429 547.62 342.249C538.54 342.079 532.5 335.749 532.71 327.049C532.91 318.789 539.28 313.309 548.41 313.459C553.07 313.539 557.72 313.469 562.38 313.469C562.38 313.439 562.38 313.419 562.38 313.389Z" fill="#585B4C"/>
<path d="M340.73 558.959C340.73 564.619 340.87 570.289 340.7 575.949C340.45 584.079 335.41 589.169 327.7 589.379C319.56 589.599 313.15 584.409 312.89 576.429C312.52 564.949 312.51 553.439 312.97 541.969C313.3 533.839 319.55 529.009 327.94 529.339C335.6 529.649 340.6 534.909 340.74 542.969C340.83 548.299 340.76 553.629 340.76 558.959H340.74H340.73Z" fill="#585B4C"/>
<path d="M340.73 94.2794C340.73 99.7694 340.85 105.269 340.7 110.749C340.49 118.359 335.21 123.529 327.31 124.099C320.67 124.579 313.99 120.009 313.6 113.069C312.9 100.489 312.72 87.8094 313.52 75.2394C314.04 67.0394 320 63.5794 328.92 64.2694C335.92 64.8194 340.56 70.0994 340.73 77.7994C340.79 80.6294 340.71 83.4594 340.7 86.2894C340.7 88.9494 340.7 91.6194 340.7 94.2794H340.74H340.73Z" fill="#585B4C"/>
<path d="M147.74 222.349C147.69 232.549 136.28 239.779 127.05 235.059C117.91 230.389 108.96 225.319 100.16 220.029C93.1103 215.799 91.5103 207.689 95.7303 200.519C99.8103 193.599 107.18 191.519 114.57 195.509C123.17 200.159 131.68 204.979 140.15 209.859C144.89 212.589 147.95 216.519 147.74 222.339V222.349Z" fill="#585B4C"/>
<path d="M131.76 422.309C138.7 422.359 144.08 426.319 146.24 432.159C148.28 437.669 147.33 442.649 142.94 446.689C141.24 448.249 139.32 449.619 137.34 450.809C130.08 455.149 122.78 459.429 115.45 463.649C108.19 467.829 100.31 466.239 96.1303 459.859C91.7203 453.119 93.1103 444.919 100.17 440.219C108.72 434.529 117.63 429.349 126.49 424.129C128.42 422.999 130.8 422.629 131.77 422.319L131.76 422.309Z" fill="#585B4C"/>
<path d="M545.75 194.319C552.26 194.319 557.22 197.729 559.56 203.329C561.82 208.749 561.15 214.849 556.18 218.189C546.44 224.729 536.32 230.799 525.9 236.159C520.33 239.029 513.56 235.729 510.05 230.169C506.49 224.519 506.3 216.839 511.44 213.349C521.67 206.409 532.72 200.669 543.48 194.519C544.26 194.079 545.44 194.329 545.75 194.309V194.319Z" fill="#585B4C"/>
<path d="M456.52 101.229C467.43 101.119 474.87 111.039 470.36 119.999C465.17 130.329 458.84 140.139 452.32 149.709C448.69 155.039 440.89 155.779 435.68 152.529C429.3 148.549 426.46 141.129 429.88 134.919C435.15 125.339 440.96 116.059 446.82 106.829C449.13 103.189 452.67 100.949 456.52 101.229Z" fill="#585B4C"/>
<path d="M182.69 115.809C182.71 108.299 186.86 102.809 192.73 101.319C199.37 99.6294 204.26 101.889 207.85 107.799C212.66 115.739 217.81 123.469 222.64 131.399C228.23 140.579 223.43 151.789 213.17 153.739C207.66 154.779 203.03 152.649 200.22 148.209C194.39 138.979 189.08 129.409 183.72 119.879C182.87 118.369 182.83 116.389 182.7 115.809H182.69Z" fill="#585B4C"/>
<path d="M196.55 554.429C185.64 554.339 179.45 544.259 184.4 535.049C189.5 525.549 195.01 516.269 200.64 507.069C204.34 501.029 211.46 499.389 217.67 502.619C224.15 505.989 227.34 513.589 224.05 519.919C218.99 529.629 213.43 539.089 207.76 548.459C205.2 552.689 201.09 554.879 196.55 554.439V554.429Z" fill="#585B4C"/>
</svg>
