<svg viewBox="0 0 111 183" fill="none" xmlns="http://www.w3.org/2000/svg">
<path d="M43.6919 160.142C46.0389 155.92 49.0389 152.099 52.3809 148.623C54.3439 146.581 59.6069 139.745 62.5959 143.539C63.9319 145.235 64.2389 147.676 65.3169 149.538C66.3969 151.404 68.0159 152.715 69.9509 153.637C71.2449 154.255 74.2899 155.437 74.8069 153.37C75.1649 151.94 73.4919 150.501 74.0679 148.952C75.5869 144.859 83.0349 150.209 85.3809 150.704C88.2609 151.311 92.7549 150.641 94.6329 148.182C97.4749 144.458 93.4449 141.415 91.4529 138.721C89.6049 136.223 91.9909 136.2 94.2479 136.046C98.5119 135.755 103.284 135.895 107.224 133.985C114.608 130.404 105.399 126.018 102.37 123.789C100.509 122.418 101.164 121.447 102.617 119.941C104.873 117.602 107.489 115.539 109.075 112.636C110.193 110.588 110.729 107.843 107.844 107.215C104.488 106.485 100.366 108.901 97.6389 110.539C95.9469 111.555 94.3449 112.701 92.7609 113.875C92.2109 114.283 90.8819 115.696 90.1479 115.706C88.6669 115.725 89.6329 113.011 89.7569 111.914C90.0039 109.735 90.6129 105.853 88.9149 104.056C86.8879 101.914 84.2539 105.121 83.0789 106.682C80.5749 110.009 79.0249 113.928 77.3609 117.709C76.6369 119.354 75.9789 121.642 74.7149 119.287C73.2719 116.601 72.6969 113.473 70.2729 111.377C67.5919 109.062 64.6939 110.373 62.7319 112.906C59.5869 116.967 58.5709 122.141 59.0909 127.178C59.3499 129.672 59.9779 132.172 60.8759 134.509C61.3189 135.658 61.9319 136.329 61.3449 137.423C60.7979 138.441 58.9379 139.502 58.0529 140.286C53.2249 144.567 48.6979 149.239 45.0969 154.504C45.9369 150.933 46.6979 147.372 47.4309 143.905C50.0169 131.674 51.3679 119.148 51.2349 106.642C51.2089 104.187 53.0189 100.766 54.0839 98.6053C55.5309 95.6663 58.6919 88.1673 62.9069 89.0233C65.2759 89.5033 67.2879 92.0003 69.1069 93.4233C71.3719 95.1953 73.8359 96.4563 76.5369 97.4223C79.7039 98.5553 88.2429 100.43 90.4529 96.5193C91.6389 94.4203 88.2119 92.5393 89.1559 91.0613C89.7459 90.1393 92.8289 90.2633 93.7269 90.1643C96.0499 89.9053 98.5439 89.7403 100.745 88.8923C104.973 87.2623 102.161 84.5723 99.5809 82.8853C97.7309 81.6763 94.4389 80.4673 98.1209 79.6193C101.744 78.7843 107.684 78.3683 110.073 75.0573C112.603 71.5503 106.197 69.6293 103.9 68.8393C103.249 68.6153 100.887 68.1943 100.861 67.2453C100.837 66.4033 103.286 65.4083 103.837 65.0603C107.229 62.9213 110.721 56.8273 105.638 54.3573C102.65 52.9043 97.7399 55.0603 95.0579 56.5893C93.6349 57.4023 91.0919 58.7973 90.0589 56.8593C89.0309 54.9323 91.3489 52.7173 90.0729 50.5653C88.7889 48.3983 85.8719 48.7923 83.8489 49.5503C80.4069 50.8413 77.6039 54.1733 77.3439 57.8883C77.2139 59.7493 77.0169 60.8263 75.6009 62.2453C74.5249 63.3253 72.8199 64.5483 71.3829 63.2823C69.7059 61.8043 71.6739 58.2803 68.3569 58.0223C63.4499 57.6393 58.1949 62.6083 56.5259 66.8383C54.2429 72.6233 57.7879 80.5503 59.3509 86.1323C55.5229 90.4323 52.5199 95.2253 51.0379 100.611C50.6509 93.5573 49.7199 86.5453 48.5929 79.5613C48.6629 79.3893 48.6839 79.1943 48.6049 78.9743C48.5499 78.8183 48.4819 78.6633 48.4249 78.5083C47.4899 72.8103 46.4559 67.1303 45.5179 61.4563C44.9539 58.0403 44.5989 54.6083 44.1339 51.1803C43.7849 48.6093 42.5449 45.6863 45.3019 44.4373C48.6889 42.9033 54.9519 38.8623 53.9809 34.3213C53.3339 31.3003 49.5599 30.9083 47.4529 29.3793C44.6559 27.3503 47.5019 24.5943 49.0659 22.6273C50.3959 20.9573 54.6229 16.8443 53.5849 14.3403C52.5619 11.8723 47.8019 13.8703 46.1629 14.4483C44.5639 15.0113 41.3929 17.0453 40.5019 14.8563C40.0309 13.7013 40.6019 11.6423 40.6489 10.4343C40.7219 8.58431 40.7079 6.69032 40.2619 4.88032C39.5419 1.95232 37.2519 -1.17169 33.9079 0.439311C30.5869 2.04031 29.5699 6.56932 29.8399 9.90232C29.9779 11.6053 30.4439 13.2653 31.1629 14.8133C31.2929 15.0923 32.3959 16.6433 32.2719 16.9313C32.0519 17.4483 28.1419 16.2323 27.4809 16.1463C25.8729 15.9383 21.5469 15.4043 21.1359 17.7663C20.6979 20.2883 25.6669 23.0083 27.2769 24.0823C28.5419 24.9283 33.6099 27.1993 33.5799 29.1203C33.5549 30.6623 30.2159 31.3213 29.1479 31.8503C23.5389 34.6273 28.9439 37.6143 32.6269 38.4913C36.6589 39.4513 41.2569 39.7623 42.0429 44.6023C42.9439 50.1623 42.9199 55.9373 43.7049 61.5393C44.1699 64.8563 44.6679 68.1683 45.1629 71.4793C45.0039 70.4163 43.5359 68.7933 42.9599 67.8743C42.1359 66.5613 41.2799 65.2723 40.3099 64.0603C38.9479 62.3593 37.3429 61.1803 37.6279 58.8393C38.0389 55.4693 42.8929 47.3633 38.9189 44.7223C37.1209 43.5293 36.8139 45.5013 35.5199 46.3943C33.1959 47.9963 32.6989 46.1563 32.9559 44.0963C33.3449 40.9963 33.7619 38.3743 33.0349 35.2413C32.3519 32.2963 29.4989 29.1423 26.5329 31.6943C24.7319 33.2433 23.4479 38.6703 21.5929 34.2313C20.1619 30.8083 20.9379 24.5723 15.9519 24.1113C13.3849 23.8733 10.3379 25.3223 8.88994 27.4313C7.22794 29.8533 9.38694 32.5243 10.6279 34.7023C11.1269 35.5783 12.6869 37.1293 12.8159 38.1203C12.9359 39.0283 13.2279 38.6143 12.3139 38.8253C11.3709 39.0433 9.60994 38.3023 8.63594 38.1873C6.32394 37.9153 1.32894 37.5073 0.201943 40.2983C-1.13306 43.5993 4.50694 46.5883 6.67894 47.6993C8.90994 48.8423 11.2709 49.7223 13.6599 50.4703C14.7409 50.8073 17.0829 50.9743 17.9519 51.7153C18.6759 52.3333 18.7039 51.7903 18.1069 52.4543C17.5719 53.0503 15.4959 53.2793 14.7449 53.5443C13.0939 54.1253 8.40094 55.5563 8.41294 57.9023C8.42694 60.5593 14.2109 60.6833 15.8789 60.8083C21.4999 61.2273 29.0389 59.3203 34.0959 62.4283C36.7069 64.0333 38.4129 67.1123 40.1399 69.5493C41.2319 71.0913 42.3259 72.6303 43.3879 74.1913C44.1069 75.2483 46.0069 77.2133 46.1889 78.4723C47.3159 86.3083 48.2979 94.1603 48.6679 102.089C49.1169 111.691 48.4269 121.296 47.0519 130.803C46.4109 128.242 45.4859 125.804 44.4339 123.388C43.6309 121.543 41.3329 118.66 41.2259 116.703C41.1309 114.974 43.4199 113.744 43.9689 112.067C44.5599 110.262 44.3859 108.243 43.1379 106.76C41.7039 105.06 41.6669 104.256 42.3799 102.014C43.0999 99.7493 45.5379 95.3503 43.6579 93.1223C40.2889 89.1313 32.0589 97.5353 33.5999 88.7653C33.9679 86.6723 35.6739 81.5833 33.0259 80.2993C30.3899 79.0203 26.3859 82.8303 24.4269 84.1183C21.6089 85.9703 20.9819 85.0203 19.9569 82.1073C18.8029 78.8263 16.9789 74.2803 12.9929 73.7423C8.61494 73.1513 7.05194 78.0773 7.72894 81.5503C8.18494 83.8873 9.40894 86.0193 10.9029 87.8443C11.8129 88.9543 13.5739 90.0123 14.2429 91.2483C15.3429 93.2813 11.2909 93.2923 9.70494 93.8763C6.99994 94.8743 3.23694 97.1933 6.21594 100.15C9.40094 103.311 15.0189 103.88 19.1669 104.871C22.6729 105.71 21.4669 106.299 18.8529 107.585C17.2689 108.364 12.4579 110.277 13.6859 112.763C14.9469 115.315 21.0909 115.148 23.3619 115.202C28.7719 115.337 36.9079 113.035 39.8229 118.887C42.6699 124.603 45.4099 130.912 46.0119 137.305C45.6549 139.325 45.2779 141.339 44.8699 143.344C43.3829 150.648 41.1229 157.73 38.9189 164.822C38.3579 161.854 37.4429 158.96 36.2279 156.165L36.3269 156.197C36.7379 156.333 39.4719 147.792 39.6489 146.937C40.5429 142.627 41.2369 137.778 39.0889 133.71C37.3779 130.468 34.4429 130.535 32.5139 133.601C31.8089 134.721 30.4089 139.211 29.0929 136.014C28.2689 134.013 29.3669 131.413 29.4579 129.338C29.5469 127.319 29.0639 125.102 27.6559 123.585C26.3719 122.202 23.3669 120.901 21.5629 122.003C20.3199 122.763 20.8589 127.479 19.1389 127.225C18.1379 127.076 17.6889 124.008 17.4739 123.306C16.8889 121.392 16.1229 119.334 14.8519 117.752C13.4899 116.06 11.1999 114.801 9.45794 116.743C7.51194 118.913 8.40594 122.743 9.27594 125.151C9.84194 126.719 10.6829 128.287 11.5509 129.709C11.9579 130.375 13.0889 131.463 13.1869 132.256C13.4429 134.34 9.06694 133.441 7.59594 133.58C2.95494 134.02 5.65794 139.172 8.37094 140.843C10.3399 142.055 12.4159 143.095 14.2909 144.46C16.6369 146.167 17.2659 147.339 14.6829 148.95C12.7859 150.134 10.6129 151.448 10.3419 153.897C10.1279 155.831 11.2149 157.518 12.9369 158.324C17.1839 160.312 24.8049 159.597 29.1279 158.409C31.2759 157.818 33.5219 157.69 34.9089 159.697C35.7259 160.879 36.1289 162.48 36.5789 163.827C36.8929 164.767 38.1479 167.312 37.8539 168.276C36.5249 172.633 35.2629 177.005 34.2739 181.447C34.1049 182.206 35.1769 182.579 35.5409 181.907C39.1599 175.229 41.6819 167.738 43.6919 160.142Z" fill="black"/>
</svg>
