<svg viewBox="0 0 114 185" fill="none" xmlns="http://www.w3.org/2000/svg">
<path d="M104.841 69.6791C99.5026 67.5691 92.6766 76.3811 88.4566 79.3601C84.5506 82.2611 82.1536 86.267 80.1766 90.565C77.5636 91.762 74.7056 92.7661 72.1616 93.9761C73.4446 91.4851 74.4906 88.851 75.1646 86.153C77.6416 83.368 82.0166 82.5301 84.2366 79.3601C87.5886 74.5191 82.8716 69.9271 81.2576 65.3351C80.0166 61.4881 79.8936 46.8421 73.8126 50.1931C67.6066 53.6681 67.8546 63.1011 69.3436 68.8101C70.5696 73.3371 73.0796 78.5791 73.6726 83.6131C73.1826 87.2751 72.2146 90.8861 70.8306 94.6541C68.4666 95.9241 66.5056 97.466 65.4816 99.655C65.2756 94.137 64.9226 88.629 64.2896 83.14C64.3446 82.973 64.3406 82.7871 64.2366 82.6071C64.2336 82.6011 64.2286 82.5951 64.2246 82.5871C64.1656 82.0931 64.1126 81.598 64.0476 81.104C62.7876 71.314 60.1296 61.771 55.8976 52.937C55.9276 52.856 55.9416 52.7661 55.9136 52.6691C54.6336 48.2101 54.3486 44.074 54.6356 40.034C57.6996 37.1811 63.1946 37.1451 65.4956 33.8091C66.9846 31.8231 66.1166 30.5821 65.9916 28.3491C65.7436 24.9981 66.4876 22.515 67.4806 19.288C68.7216 15.564 69.7146 3.27705 62.0196 4.64205C59.9106 5.13905 58.4206 8.49005 57.3036 9.97905C54.3246 13.702 50.3536 16.929 48.1186 21.149C44.4096 28.219 48.6046 33.7761 52.7146 39.3341C52.5906 42.3891 52.8306 45.4191 53.4876 48.2971C52.0186 45.6771 50.4086 43.1251 48.6336 40.6681C46.4966 37.7111 44.1356 34.9491 41.6046 32.3511C41.2686 30.4061 41.3566 28.4261 40.5486 26.6111C39.4306 23.5081 37.3206 23.881 35.4596 21.895C33.3496 19.537 33.8466 15.565 32.2316 12.958C29.9976 9.11105 27.8876 9.60705 24.1646 8.98705C17.0906 7.62205 9.76659 -4.78995 1.94759 2.03605C-5.62241 8.61405 11.0086 24.6251 15.4766 28.8451C23.9196 36.6841 31.3066 31.283 40.8286 33.591C43.5166 36.43 46.0326 39.4441 48.3146 42.6821C55.8996 53.4411 59.8806 66.1141 61.8556 79.0181C58.6066 74.6291 54.4076 70.9021 49.5486 68.4591C48.5666 67.9661 47.5086 67.5191 46.4056 67.1111C44.2806 64.0061 40.9566 61.366 37.6916 60.246C32.4786 58.26 27.7626 61.3631 22.5506 59.0051C17.4606 56.7711 10.0136 52.0551 5.04958 58.1361C1.44958 62.7281 16.2196 70.4231 20.3166 70.7961C24.1636 71.1681 28.1346 69.3061 31.8586 68.6861C35.3406 68.1411 38.9196 68.0751 42.4236 68.1511C44.4886 68.5861 46.5436 69.2001 48.5896 70.1021C50.3286 70.8681 51.8706 71.8421 53.2896 72.9491C50.9406 72.8291 48.3826 73.0021 46.0366 73.6451C41.0796 71.7311 36.4816 72.9831 32.4786 76.3811C30.1216 78.3671 22.0536 83.331 23.6676 86.558C24.4116 88.172 34.4656 92.7641 36.4506 92.5161C41.4156 91.7711 41.7876 84.4491 43.5246 81.0971C44.3226 79.3891 48.9696 76.431 48.6796 74.899C50.6346 74.473 52.7236 74.3291 54.9946 74.3911C57.6706 76.8351 59.9376 79.726 62.3396 82.53C62.5546 84.238 62.7426 85.9461 62.8956 87.6521C63.9546 99.4641 63.8526 111.383 63.9556 123.265C62.3226 120.859 60.3176 118.555 58.0636 116.443C56.3336 113.01 55.9136 109.122 53.9506 105.921C50.8486 101.08 22.4266 89.0421 20.5646 97.3571C19.3236 102.569 35.3346 114.112 39.4286 115.849C44.9626 118.237 50.7816 116.07 56.3036 117.726C59.0726 119.964 61.6516 122.462 63.9776 125.314C64.0086 128.239 64.0526 131.161 64.1406 134.076C64.6376 150.694 64.9396 167.699 67.3016 184.172C67.4156 184.967 68.6786 184.754 68.6736 183.988C68.5996 171.997 67.7226 159.985 66.9766 147.979C67.9136 143.798 70.9046 140.73 74.3316 137.868C76.7946 137.076 79.8116 136.549 81.6286 136.204C86.8416 135.335 91.3106 136.701 94.6606 130.992C96.2726 128.137 98.6326 111.382 95.2806 110.017C93.6676 109.148 81.1326 121.063 79.2696 122.925C74.6206 127.461 73.2826 133.447 70.6236 139.087C69.1356 140.491 67.7106 142.083 66.7226 143.836C66.4566 139.296 66.2256 134.758 66.0816 130.222C65.8006 121.402 65.8366 112.548 65.6036 103.712C67.5076 97.0821 74.1136 94.982 79.8956 92.451C80.5286 92.173 81.1886 91.876 81.8516 91.558C82.7696 91.744 83.3606 92.5801 84.4816 93.0121C87.5856 94.1291 89.1986 93.8811 92.3016 92.7641C98.8786 90.2821 105.705 87.179 110.67 81.966C113.027 79.484 114.145 78.2431 112.282 75.5121C111.047 73.7751 106.951 70.4241 104.841 69.6791Z" fill="black"/>
</svg>
