<svg xmlns="http://www.w3.org/2000/svg" viewBox="0 0 658 658">
  <style>.cls-1 {fill: #fcfeff;}</style>
  <rect class="cls-1" width="658" height="658" rx="100" ry="100"/>
  <path d="M606.12,398.08c-9.43-8.29-18.82-16.42-28.01-24.77-1.12-1.01-1.67-3.26-1.6-4.9.74-15.36,2.5-30.73,2.4-46.07-.37-51.92-16.13-99.14-45.84-141.54-37.95-54.19-89.4-89.28-154.38-101.44-87.92-16.45-165.76,5.42-230.39,68.48-38.81,37.87-61.29,84.64-70.06,137.9-8.06,48.92-4.47,96.89,16.1,142.5,24.68,54.71,63.52,96.6,116.66,124.98,27.82,14.86,57.35,24.35,88.65,27.77,26.41,2.89,52.72,1.67,78.71-4.35,1.56-.36,3.93-.14,5.02.83,10.3,9.08,20.41,18.37,30.15,27.22-84,30.5-210.33,17.19-301.12-84.42C15.28,411.55,18.53,255.95,98.28,151.23,183.05,39.89,331.56,10.35,451.64,66.91c124.52,58.66,187.3,197.91,154.47,331.18h0Z"/>
  <path d="M365.5,485.44c-3.46-66.28,57.53-127.87,126.21-127.61,76.7.29,127.71,62.99,127.33,128.61-.41,71.74-60.96,127.31-127.11,127.17-70.9-.14-129.31-61.11-126.43-128.17h0ZM469.24,498.59c-1.13-1.57-1.85-2.87-2.86-3.91-8.43-8.81-16.81-17.65-25.39-26.3-6.68-6.75-14.8-6.92-21.01-.76-6.28,6.22-6.24,14.32.23,21.04,12.43,12.9,24.87,25.77,37.39,38.58,7.6,7.77,16.18,7.92,23.87.14,27.14-27.47,54.16-55.03,81.21-82.59,6.44-6.57,6.49-14.23.26-20.59-6.21-6.35-13.87-6.42-20.6-.17-1.29,1.2-2.48,2.5-3.71,3.76-22.81,23.27-45.62,46.55-69.4,70.8h0Z"/>
  <path d="M326.79,362.65c-13.57-.02-24.17-7.99-26.95-21.23-1-4.77-3.32-7.68-7.03-10.3-28.46-20.18-56.86-40.44-85.29-60.66-8.14-5.79-9.98-13.29-4.9-20.27,4.55-6.25,11.93-7.67,18.6-3.37,20.07,12.94,40.09,25.96,60.12,38.94,9.84,6.37,19.72,12.68,29.48,19.17,2.77,1.84,5.26,2.02,8.57,1.41,4.79-.88,9.81-.42,14.73-.71,1.99-.11,4.44-.07,5.87-1.16,13.47-10.38,26.72-21.07,40.12-31.54,21.15-16.53,42.43-32.87,63.52-49.47,8.87-6.98,17.47-14.31,26.04-21.67,6.23-5.35,13.24-5.28,18.17.56,4.78,5.66,3.86,12.6-2.19,17.76-35.85,30.55-71.66,61.14-107.49,91.71-7.15,6.09-14.36,12.11-21.44,18.28-1.07.93-2.35,2.64-2.18,3.78,2.23,14.18-11.74,30.05-27.76,28.79v-.03Z"/>
  <path d="M119.07,340.62c-4.41,0-8.81.08-13.21-.02-6.62-.15-11.92-5-12.47-11.26-.63-7.01,3.61-13.36,10.55-13.79,10.37-.64,20.85-.71,31.22-.06,6.8.42,10.61,6.37,10.21,13.56-.36,6.33-5.33,11.03-12.21,11.52-.29.02-.59.03-.88.03h-13.21v.04h0Z"/>
  <path d="M534.66,315.12c4.25,0,8.5.04,12.75,0,7.4-.08,12.84,5.07,13.07,12.44.22,7.18-5.18,12.96-12.45,13.04-8.8.1-17.59.12-26.39-.04-8-.15-13.33-5.73-13.14-13.4.18-7.28,5.79-12.11,13.84-11.98,4.11.07,8.21,0,12.31,0v-.07Z"/>
  <path d="M339.29,531.58c0,4.99.12,9.99-.03,14.98-.22,7.17-4.66,11.65-11.46,11.84-7.17.19-12.83-4.38-13.05-11.41-.33-10.12-.33-20.26.07-30.37.29-7.17,5.8-11.42,13.2-11.13,6.75.27,11.16,4.91,11.28,12.01.08,4.7.02,9.4.02,14.09h-.03Z"/>
  <path d="M339.29,121.99c0,4.84.11,9.69-.03,14.52-.19,6.71-4.84,11.26-11.8,11.77-5.85.42-11.74-3.61-12.08-9.72-.62-11.09-.78-22.26-.07-33.34.46-7.23,5.71-10.28,13.57-9.67,6.17.48,10.26,5.14,10.41,11.93.05,2.49-.02,4.99-.03,7.48v7.04h.04,0Z"/>
  <path d="M169.18,234.88c-.04,8.99-10.1,15.36-18.24,11.2-8.06-4.12-15.95-8.59-23.7-13.25-6.21-3.73-7.62-10.88-3.9-17.2,3.6-6.1,10.09-7.93,16.61-4.42,7.58,4.1,15.08,8.35,22.55,12.65,4.18,2.41,6.88,5.87,6.69,11h0Z"/>
  <path d="M155.09,411.13c6.12.04,10.86,3.53,12.76,8.68,1.8,4.86.96,9.25-2.91,12.81-1.5,1.38-3.19,2.58-4.94,3.63-6.4,3.83-12.83,7.6-19.29,11.32-6.4,3.68-13.35,2.28-17.03-3.34-3.89-5.94-2.66-13.17,3.56-17.31,7.54-5.02,15.39-9.58,23.2-14.18,1.7-1,3.8-1.32,4.65-1.6h0Z"/>
  <path d="M520,210.17c5.74,0,10.11,3.01,12.17,7.94,1.99,4.78,1.4,10.15-2.98,13.1-8.59,5.76-17.51,11.11-26.69,15.84-4.91,2.53-10.88-.38-13.97-5.28-3.14-4.98-3.31-11.75,1.23-14.83,9.02-6.12,18.76-11.18,28.24-16.6.69-.39,1.73-.17,2-.19h0Z"/>
  <path d="M441.35,128.11c9.62-.1,16.17,8.65,12.2,16.54-4.57,9.11-10.15,17.75-15.9,26.19-3.2,4.7-10.07,5.35-14.67,2.49-5.62-3.51-8.13-10.05-5.11-15.52,4.65-8.44,9.77-16.62,14.93-24.76,2.04-3.21,5.16-5.18,8.55-4.94Z"/>
  <path d="M199.99,140.97c.02-6.62,3.68-11.46,8.85-12.77,5.85-1.49,10.16.5,13.33,5.71,4.24,7,8.78,13.81,13.04,20.8,4.93,8.09.7,17.97-8.35,19.69-4.86.92-8.94-.96-11.41-4.87-5.14-8.14-9.82-16.57-14.54-24.97-.75-1.33-.78-3.08-.9-3.59h0Z"/>
  <path d="M212.2,527.58c-9.62-.08-15.07-8.96-10.71-17.08,4.5-8.37,9.35-16.55,14.31-24.66,3.26-5.32,9.54-6.77,15.01-3.92,5.71,2.97,8.52,9.67,5.62,15.25-4.46,8.56-9.36,16.9-14.36,25.16-2.26,3.73-5.88,5.66-9.88,5.27h0Z"/>
</svg>